#!OML:ASF H:\Punching\Project 1\Capture day 1\Session 1\female.ASF
:FULLY-SPECIFIED
:DEGREES
1629
root -0.925048 14.6933 1.2084 12.708 7.63868 -3.41618
lowerback -1.8625 3.66415 0.086071
upperback -5.56934 4.90908 -0.412677
thorax -4.66256 2.44563 -0.582921
lowerneck -8.51825 -1.13058 8.33859
upperneck 33.356 -4.81056 4.74299
head 12.4989 -0.42118 -0.228509
rclavicle 6.43565e-014 -1.47101e-014
rhumerus 15.7195 -9.69525 -61.1937
rradius 111.16
rwrist -37.8422
rhand -22.2576 -26.0387
rfingers 7.12502
rthumb 4.16 -55.9779
lclavicle 6.43565e-014 -1.47101e-014
lhumerus 19.6663 -42.5728 81.7377
lradius 131.91
lwrist 18.4356
lhand -21.2559 9.33588
lfingers 7.12502
lthumb 5.12731 39.2538
rfemur 20.2039 -22.6926 11.8544
rtibia -4.13472e-014
rfoot -16.0971 -16.5079
rtoes -11.9578
lfemur -48.7736 -5.53147 -0.819019
ltibia 38.2597
lfoot -1.67439 5.33263
ltoes -7.66201
1630
root -0.930579 14.7005 1.21104 12.7268 6.59407 -3.50694
lowerback -1.66383 3.4847 -0.101514
upperback -5.58888 4.66257 -0.480432
thorax -4.80643 2.32712 -0.558463
lowerneck -8.39299 -0.63046 9.03681
upperneck 33.5367 -4.17855 4.53519
head 12.5518 -0.0787018 -0.345914
rclavicle -2.72087e-014 9.14409e-015
rhumerus 13.7307 -8.65485 -62.2643
rradius 115.718
rwrist -37.2397
rhand -21.4896 -24.9083
rfingers 7.12502
rthumb 4.9016 -54.8316
lclavicle -2.72087e-014 9.14409e-015
lhumerus 19.6839 -42.3227 81.5117
lradius 132.215
lwrist 18.4768
lhand -21.3259 9.30563
lfingers 7.12502
lthumb 5.0597 39.2252
rfemur 19.7806 -21.526 12.0433
rtibia 1.27222e-014
rfoot -16.0073 -16.9266
rtoes -12.4077
lfemur -48.3221 -5.20603 -0.538487
ltibia 38.3228
lfoot -1.97059 5.96914
ltoes -7.44874
1631
root -0.934774 14.7066 1.21441 12.7386 5.55208 -3.61863
lowerback -1.4735 3.29152 -0.25848
upperback -5.59459 4.39722 -0.539551
thorax -4.92878 2.19841 -0.538647
lowerneck -8.30001 -0.130634 9.71801
upperneck 33.7449 -3.54785 4.32183
head 12.6312 0.262458 -0.46278
rclavicle -1.6201e-014 -1.63003e-014
rhumerus 11.8275 -7.62617 -63.3842
rradius 119.985
rwrist -36.6816
rhand -20.7528 -24.0393
rfingers 7.12502
rthumb 5.61299 -53.9449
lclavicle -1.6201e-014 -1.63003e-014
lhumerus 19.7168 -42.0477 81.2874
lradius 132.563
lwrist 18.4302
lhand -21.3946 9.27145
lfingers 7.12502
lthumb 4.99339 39.1926
rfemur 19.379 -20.3524 12.234
rtibia 4.13472e-014
rfoot -15.9338 -17.3409
rtoes -12.8247
lfemur -47.8709 -4.89059 -0.240602
ltibia 38.421
lfoot -2.29763 6.59984
ltoes -7.22855
1632
root -0.937457 14.7117 1.21839 12.7459 4.51516 -3.75326
lowerback -1.29476 3.08725 -0.383465
upperback -5.58268 4.11721 -0.584492
thorax -5.02418 2.06162 -0.518371
lowerneck -8.24519 0.369314 10.3699
upperneck 33.9752 -2.91524 4.1007
head 12.7359 0.601526 -0.577073
rclavicle -2.17669e-014 1.59028e-014
rhumerus 10.0476 -6.60847 -64.5445
rradius 123.908
rwrist -36.1901
rhand -20.0724 -23.4796
rfingers 7.12502
rthumb 6.26993 -53.3668
lclavicle -2.17669e-014 1.59028e-014
lhumerus 19.7695 -41.7348 81.0707
lradius 132.943
lwrist 18.3065
lhand -21.4452 9.22268
lfingers 7.12502
lthumb 4.94452 39.145
rfemur 18.9961 -19.1739 12.4298
rtibia 3.81667e-014
rfoot -15.8746 -17.7527
rtoes -13.2119
lfemur -47.4245 -4.58734 0.0768796
ltibia 38.5567
lfoot -2.65801 7.22643
ltoes -6.9748
